<svg width="17" height="19" viewBox="0 0 17 19" fill="none" xmlns="http://www.w3.org/2000/svg">
<g clip-path="url(#clip0_4_700)">
<path d="M8.16832 1.81756C8.19936 1.74747 8.24731 1.68847 8.30676 1.64722C8.36621 1.60597 8.4348 1.58411 8.50477 1.58411C8.57475 1.58411 8.64334 1.60597 8.70279 1.64722C8.76224 1.68847 8.81019 1.74747 8.84123 1.81756L10.4775 5.52177C10.5851 5.7657 10.7442 5.97674 10.941 6.13671C11.1378 6.29669 11.3665 6.40081 11.6073 6.44011L15.2665 7.03861C15.3359 7.04983 15.401 7.08252 15.4546 7.13297C15.5082 7.18342 15.548 7.24962 15.5697 7.32409C15.5914 7.39855 15.594 7.4783 15.5772 7.55433C15.5604 7.63035 15.5249 7.69961 15.4748 7.75427L12.8284 10.6344C12.6538 10.8243 12.5231 11.0589 12.4477 11.318C12.3723 11.577 12.3544 11.8526 12.3956 12.1211L13.0204 16.1903C13.0326 16.2677 13.0252 16.3475 12.9988 16.4204C12.9724 16.4933 12.9283 16.5565 12.8713 16.6027C12.8144 16.649 12.747 16.6764 12.6768 16.6818C12.6066 16.6873 12.5364 16.6706 12.4743 16.6336L9.20319 14.7114C8.98769 14.5848 8.74788 14.5187 8.50442 14.5187C8.26096 14.5187 8.02115 14.5848 7.80565 14.7114L4.53527 16.6336C4.47318 16.6703 4.4031 16.6869 4.33301 16.6813C4.26292 16.6757 4.19564 16.6483 4.13882 16.6021C4.08199 16.5559 4.03791 16.4928 4.01157 16.42C3.98524 16.3472 3.97772 16.2676 3.98986 16.1903L4.6139 12.1219C4.65524 11.8533 4.63744 11.5775 4.56204 11.3183C4.48663 11.0592 4.35589 10.8244 4.18111 10.6344L1.53477 7.75506C1.48419 7.70047 1.44835 7.63109 1.43133 7.55483C1.41431 7.47858 1.41679 7.39851 1.4385 7.32376C1.4602 7.249 1.50025 7.18256 1.5541 7.13201C1.60794 7.08146 1.6734 7.04882 1.74302 7.03781L5.40157 6.44011C5.64262 6.40105 5.87156 6.29704 6.06863 6.13705C6.2657 5.97707 6.425 5.7659 6.53277 5.52177L8.16832 1.81756Z" fill="#F8701B" stroke="#F8701B" stroke-width="2" stroke-linecap="round" stroke-linejoin="round"/>
</g>
<defs>
<clipPath id="clip0_4_700">
<rect width="17" height="19" fill="white" transform="translate(0.00488281)"/>
</clipPath>
</defs>
</svg>
